<?xml version="1.0" encoding="utf-8"?>
<!-- Generator: Adobe Illustrator 21.0.2, SVG Export Plug-In . SVG Version: 6.00 Build 0)  -->
<svg version="1.1" xmlns="http://www.w3.org/2000/svg" xmlns:xlink="http://www.w3.org/1999/xlink" x="0px" y="0px"
	 viewBox="0 0 1051 173" style="enable-background:new 0 0 1051 173;" xml:space="preserve">
<style type="text/css">
	.st0{fill:#34BCAF;}
	.st1{fill:#FFFFFF;}
</style>
<g id="Layer_1">
	<g>
		<g>
			<g>
				<path class="st0" d="M328.7,62.4c20.1,0,33.8,13.4,33.8,33.1c0,19.7-13.7,33.1-33.8,33.1s-33.8-13.4-33.8-33.1
					C294.9,75.8,308.6,62.4,328.7,62.4z M328.7,112.4c8.7,0,14.8-6.9,14.8-16.9c0-10-6.1-16.9-14.8-16.9c-8.7,0-14.8,6.9-14.8,16.9
					C313.9,105.5,320,112.4,328.7,112.4z"/>
				<path class="st0" d="M404.1,127.2h-6.1c-3.3,0-6.2-1.9-7.6-4.9l-25.9-58.5h20.4l16.1,40.3L417,63.8h20.4l-25.9,58.5
					C410.3,125.3,407.3,127.2,404.1,127.2z"/>
				<path class="st0" d="M472.7,62.4c20.1,0,33.8,13.4,33.8,33.1c0,19.7-13.7,33.1-33.8,33.1c-20.1,0-33.8-13.4-33.8-33.1
					C438.9,75.8,452.5,62.4,472.7,62.4z M472.7,112.4c8.7,0,14.8-6.9,14.8-16.9c0-10-6.1-16.9-14.8-16.9c-8.7,0-14.8,6.9-14.8,16.9
					C457.9,105.5,464,112.4,472.7,112.4z"/>
				<path class="st0" d="M581,101.1c1.8,6.9,6.9,11.3,15.6,11.3c5.4,0,9.6-1.7,12.3-4.6l10.8,11.1c-6.1,6.2-14.2,9.7-24.5,9.7
					c-20.1,0-33.8-13.2-33.8-33.5c0-19.3,12.5-32.7,31.6-32.7c19.6,0,29.9,14.4,29.9,38.7H581z M581,88.7h23.5
					c-1.3-6.3-4.5-10.6-11.1-10.6C586.8,78.2,582.4,82.4,581,88.7z"/>
				<path class="st0" d="M664.2,82.2c-2.1-2.3-5.8-4.6-9-4.6c-3.4,0-4.8,2.7-4.8,4.6c0,8.7,25.9,6.1,25.9,25.6
					c0,11.3-8.6,20.7-23.3,20.7c-9.2,0-17.5-3.7-23.4-9.9l11.1-11.1c2.7,3.1,6.8,5.9,10.8,5.9c4.2,0,6.3-3.1,6.3-5.5
					c0-8.3-25.9-5.4-25.9-25.5c0-10.8,7.6-20.1,21.6-20.1c8.3,0,16.2,3.2,21.7,8.7L664.2,82.2z"/>
				<path class="st0" d="M745.9,99.7c0,17.2-12,28.9-29.6,28.9c-17.5,0-29.4-11.7-29.4-28.9V63.8h19v35.9c0,7.5,4.5,12.7,11,12.7
					c6.5,0,11-5.2,11-12.7V63.8h18V99.7z"/>
				<path class="st0" d="M881.5,101.1c1.8,6.9,6.9,11.3,15.6,11.3c5.4,0,9.6-1.7,12.3-4.6l10.8,11.1c-6.1,6.2-14.2,9.7-24.5,9.7
					c-20.1,0-33.8-13.2-33.8-33.5c0-19.3,12.5-32.7,31.6-32.7c19.6,0,29.9,14.4,29.9,38.7H881.5z M881.5,88.7H905
					c-1.3-6.3-4.5-10.6-11.1-10.6C887.3,78.2,882.9,82.4,881.5,88.7z"/>
			</g>
			<path class="st0" d="M259.2,62.4H248c-13,0-23.5,10.5-23.5,23.5l0,41.3h18.3V89.9v-1.4c0-4.5,2.9-8.2,7-9.5
				c1.4-0.3,2.8-0.5,4.4-0.5c6.2,0,10.2,4.6,10.3,11.1v0.2h0v37.3h18.3V89.8C282.9,73.5,273.9,62.4,259.2,62.4z"/>
			<path class="st0" d="M829.4,62.4H819c-5,0-9.6,1.8-13.3,4.8c-3.6-3.1-8.1-4.8-13.5-4.8h-10.4c-12.1,0-21.8,10.5-21.8,23.5l0,41.3
				h17V89.9v-1.4c0-4.5,2.7-8.2,6.5-9.5c1.3-0.3,2.6-0.5,4.1-0.5c5.3,0,9,4,9.5,9.8l0,38.8h0.1h17h0.1V89.8c0-0.7,0-1.3,0-1.9
				c0.2-4.2,2.9-7.6,6.5-8.8c1.3-0.3,2.6-0.5,4.1-0.5c5.7,0,9.5,4.6,9.6,11.1v0.2h0v37.3h17V89.8C851.5,73.5,843.1,62.4,829.4,62.4z
				"/>
			<g>
				<path class="st0" d="M549.5,62.4h-3.9c-3.3,0-6.3,1-8.8,2.6c-2.9-1.7-6.3-2.6-10.2-2.6h-8.1v13.8v3.7v47.3h18.3V88.6
					c0-1.5,0.3-2.9,0.9-4.1c1.6-3.7,5.3-6.3,9.5-6.3h7.8v-1h0l0-3.6l0-2.8h0v-1.4v-6.3v-0.7H549.5z"/>
			</g>
		</g>
		<g>
			<g>
				<path class="st1" d="M328.7,62.4c20.1,0,33.8,13.4,33.8,33.1c0,19.7-13.7,33.1-33.8,33.1s-33.8-13.4-33.8-33.1
					C294.9,75.8,308.6,62.4,328.7,62.4z M328.7,112.4c8.7,0,14.8-6.9,14.8-16.9c0-10-6.1-16.9-14.8-16.9c-8.7,0-14.8,6.9-14.8,16.9
					C313.9,105.5,320,112.4,328.7,112.4z"/>
				<path class="st1" d="M404.1,127.2h-6.1c-3.3,0-6.2-1.9-7.6-4.9l-25.9-58.5h20.4l16.1,40.3L417,63.8h20.4l-25.9,58.5
					C410.3,125.3,407.3,127.2,404.1,127.2z"/>
				<path class="st1" d="M472.7,62.4c20.1,0,33.8,13.4,33.8,33.1c0,19.7-13.7,33.1-33.8,33.1c-20.1,0-33.8-13.4-33.8-33.1
					C438.9,75.8,452.5,62.4,472.7,62.4z M472.7,112.4c8.7,0,14.8-6.9,14.8-16.9c0-10-6.1-16.9-14.8-16.9c-8.7,0-14.8,6.9-14.8,16.9
					C457.9,105.5,464,112.4,472.7,112.4z"/>
				<path class="st1" d="M581,101.1c1.8,6.9,6.9,11.3,15.6,11.3c5.4,0,9.6-1.7,12.3-4.6l10.8,11.1c-6.1,6.2-14.2,9.7-24.5,9.7
					c-20.1,0-33.8-13.2-33.8-33.5c0-19.3,12.5-32.7,31.6-32.7c19.6,0,29.9,14.4,29.9,38.7H581z M581,88.7h23.5
					c-1.3-6.3-4.5-10.6-11.1-10.6C586.8,78.2,582.4,82.4,581,88.7z"/>
				<path class="st1" d="M664.2,82.2c-2.1-2.3-5.8-4.6-9-4.6c-3.4,0-4.8,2.7-4.8,4.6c0,8.7,25.9,6.1,25.9,25.6
					c0,11.3-8.6,20.7-23.3,20.7c-9.2,0-17.5-3.7-23.4-9.9l11.1-11.1c2.7,3.1,6.8,5.9,10.8,5.9c4.2,0,6.3-3.1,6.3-5.5
					c0-8.3-25.9-5.4-25.9-25.5c0-10.8,7.6-20.1,21.6-20.1c8.3,0,16.2,3.2,21.7,8.7L664.2,82.2z"/>
				<path class="st1" d="M745.9,99.7c0,17.2-12,28.9-29.6,28.9c-17.5,0-29.4-11.7-29.4-28.9V63.8h19v35.9c0,7.5,4.5,12.7,11,12.7
					c6.5,0,11-5.2,11-12.7V63.8h18V99.7z"/>
				<path class="st1" d="M881.5,101.1c1.8,6.9,6.9,11.3,15.6,11.3c5.4,0,9.6-1.7,12.3-4.6l10.8,11.1c-6.1,6.2-14.2,9.7-24.5,9.7
					c-20.1,0-33.8-13.2-33.8-33.5c0-19.3,12.5-32.7,31.6-32.7c19.6,0,29.9,14.4,29.9,38.7H881.5z M881.5,88.7H905
					c-1.3-6.3-4.5-10.6-11.1-10.6C887.3,78.2,882.9,82.4,881.5,88.7z"/>
			</g>
			<path class="st1" d="M259.2,62.4H248c-13,0-23.5,10.5-23.5,23.5l0,41.3h18.3V89.9v-1.4c0-4.5,2.9-8.2,7-9.5
				c1.4-0.3,2.8-0.5,4.4-0.5c6.2,0,10.2,4.6,10.3,11.1v0.2h0v37.3h18.3V89.8C282.9,73.5,273.9,62.4,259.2,62.4z"/>
			<path class="st1" d="M829.4,62.4H819c-5,0-9.6,1.8-13.3,4.8c-3.6-3.1-8.1-4.8-13.5-4.8h-10.4c-12.1,0-21.8,10.5-21.8,23.5l0,41.3
				h17V89.9v-1.4c0-4.5,2.7-8.2,6.5-9.5c1.3-0.3,2.6-0.5,4.1-0.5c5.3,0,9,4,9.5,9.8l0,38.8h0.1h17h0.1V89.8c0-0.7,0-1.3,0-1.9
				c0.2-4.2,2.9-7.6,6.5-8.8c1.3-0.3,2.6-0.5,4.1-0.5c5.7,0,9.5,4.6,9.6,11.1v0.2h0v37.3h17V89.8C851.5,73.5,843.1,62.4,829.4,62.4z
				"/>
			<g>
				<path class="st1" d="M549.5,62.4h-3.9c-3.3,0-6.3,1-8.8,2.6c-2.9-1.7-6.3-2.6-10.2-2.6h-8.1v13.8v3.7v47.3h18.3V88.6
					c0-1.5,0.3-2.9,0.9-4.1c1.6-3.7,5.3-6.3,9.5-6.3h7.8v-1h0l0-3.6l0-2.8h0v-1.4v-6.3v-0.7H549.5z"/>
			</g>
		</g>
	</g>
	<path class="st1" d="M136.4,29.7l-20.2,36.6l52.3,50.8L50.9,25l-0.5-0.4c-0.1-0.1-0.2-0.2-0.4-0.3l0,0c0,0,0,0,0,0
		c-12.1-9-29.6-0.6-29.6,14.5l0,18.7l0,0l0,79.9c0,17.7,24,23.3,32.2,7.6l20.2-36.7L21,58l118.2,92.5c1.6,1.2,3.3,2.1,5,2.7
		c0.1,0,0.1,0,0.2,0.1c0.1,0,0.2,0.1,0.3,0.1c6.9,2.3,14.5,0,19.2-5.1c0,0,0,0,0,0c0.1-0.1,0.2-0.3,0.3-0.4c0.1-0.1,0.2-0.2,0.2-0.3
		c0-0.1,0.1-0.1,0.1-0.2c2.5-3.1,4-7,4-11.5l0-0.1l0-13.1l0-5.5l0,0l-0.1-79.9C168.6,19.7,144.5,14,136.4,29.7z"/>
	<g>
		<path class="st1" d="M935.6,92.1h11.3c6.1,0,10.1,3.6,10.1,9.3c0,3-1.2,5.5-3.2,7.1c3.1,1.6,5,4.7,5,8.7c0,6.1-4.4,10-10.9,10
			h-12.3V92.1z M946.4,97.9h-3.8v8.3h3.8c2.3,0,3.9-1.7,3.9-4.1C950.2,99.5,948.7,97.9,946.4,97.9z M947.6,111.9h-5v9.5h5
			c2.7,0,4.5-1.9,4.5-4.8C952.1,113.8,950.3,111.9,947.6,111.9z"/>
		<path class="st1" d="M970.9,106.9h11v5.5h-11v9.3h12.8v5.5h-19.6V92.1h19.3v5.5h-12.5V106.9z"/>
		<path class="st1" d="M1003.3,127.2h-6.8V97.6h-9v-5.5h24.8v5.5h-9V127.2z"/>
		<path class="st1" d="M1036.1,119.7h-14.5l-3,7.5h-7.9l15-35.1h6.3l15,35.1h-7.9L1036.1,119.7z M1024,113.7h9.7l-4.8-12.7
			L1024,113.7z"/>
	</g>
</g>
<g id="Layer_2">
</g>
</svg>
